<?xml version="1.0" encoding="UTF-8" standalone="no"?>
<!DOCTYPE svg PUBLIC "-//W3C//DTD SVG 1.1//EN"
 "http://www.w3.org/Graphics/SVG/1.1/DTD/svg11.dtd">
<!-- Generated by graphviz version 7.0.5 (20221223.1930)
 -->
<!-- Pages: 1 -->
<svg width="2006pt" height="566pt"
 viewBox="0.00 0.00 2006.00 566.00" xmlns="http://www.w3.org/2000/svg" xmlns:xlink="http://www.w3.org/1999/xlink">
<g id="graph0" class="graph" transform="scale(1 1) rotate(0) translate(4 562)">
<polygon fill="white" stroke="none" points="-4,4 -4,-562 2002,-562 2002,4 -4,4"/>
<!-- 10004225437214595349 -->
<g id="node1" class="node">
<title>10004225437214595349</title>
<polygon fill="none" stroke="black" points="306,-297 252,-297 252,-261 306,-261 306,-297"/>
<text text-anchor="middle" x="279" y="-275.3" font-family="Times,serif" font-size="14.00">54</text>
</g>
<!-- 10139460791144395734 -->
<g id="node2" class="node">
<title>10139460791144395734</title>
<polygon fill="none" stroke="black" points="1494,-297 1440,-297 1440,-261 1494,-261 1494,-297"/>
<text text-anchor="middle" x="1467" y="-275.3" font-family="Times,serif" font-size="14.00">&#45;86</text>
</g>
<!-- 10266473594008233350 -->
<g id="node3" class="node">
<title>10266473594008233350</title>
<polygon fill="none" stroke="black" points="126,-471 72,-471 72,-435 126,-435 126,-471"/>
<text text-anchor="middle" x="99" y="-449.3" font-family="Times,serif" font-size="14.00">&#45;230</text>
</g>
<!-- 10344488880583956987 -->
<g id="node4" class="node">
<title>10344488880583956987</title>
<ellipse fill="none" stroke="black" cx="885" cy="-540" rx="27" ry="18"/>
<text text-anchor="middle" x="885" y="-536.3" font-family="Times,serif" font-size="14.00">89</text>
</g>
<!-- 10344488880583956987&#45;&gt;10266473594008233350 -->
<g id="edge1" class="edge">
<title>10344488880583956987&#45;&gt;10266473594008233350</title>
<path fill="none" stroke="black" d="M857.71,-539.03C772.09,-538.78 501.36,-535.37 280,-504 218.01,-495.22 199.41,-492.82 137.09,-471.38"/>
<polygon fill="black" stroke="black" points="138.29,-468.09 127.69,-468.12 135.99,-474.71 138.29,-468.09"/>
<text text-anchor="middle" x="294" y="-492.8" font-family="Times,serif" font-size="14.00">g2g4</text>
</g>
<!-- 10674508394757827255 -->
<g id="node5" class="node">
<title>10674508394757827255</title>
<polygon fill="none" stroke="black" points="198,-471 144,-471 144,-435 198,-435 198,-471"/>
<text text-anchor="middle" x="171" y="-449.3" font-family="Times,serif" font-size="14.00">52</text>
</g>
<!-- 10344488880583956987&#45;&gt;10674508394757827255 -->
<g id="edge2" class="edge">
<title>10344488880583956987&#45;&gt;10674508394757827255</title>
<path fill="none" stroke="black" d="M857.8,-538.53C782.94,-536.92 567.69,-530.18 391,-504 326.45,-494.43 252.73,-476.14 209.13,-464.53"/>
<polygon fill="black" stroke="black" points="210.21,-461.2 199.65,-461.98 208.39,-467.96 210.21,-461.2"/>
<text text-anchor="middle" x="405" y="-492.8" font-family="Times,serif" font-size="14.00">d2d4</text>
</g>
<!-- 12997426211289158427 -->
<g id="node6" class="node">
<title>12997426211289158427</title>
<polygon fill="none" stroke="black" points="378,-471 324,-471 324,-435 378,-435 378,-471"/>
<text text-anchor="middle" x="351" y="-449.3" font-family="Times,serif" font-size="14.00">56</text>
</g>
<!-- 10344488880583956987&#45;&gt;12997426211289158427 -->
<g id="edge3" class="edge">
<title>10344488880583956987&#45;&gt;12997426211289158427</title>
<path fill="none" stroke="black" d="M857.8,-537.88C776.96,-534.37 539.17,-522.71 464,-504 437.7,-497.45 409.84,-485.19 388.36,-474.45"/>
<polygon fill="black" stroke="black" points="390.21,-471.47 379.72,-470.02 387.02,-477.7 390.21,-471.47"/>
<text text-anchor="middle" x="477" y="-492.8" font-family="Times,serif" font-size="14.00">e2e4</text>
</g>
<!-- 13599179212335366834 -->
<g id="node7" class="node">
<title>13599179212335366834</title>
<polygon fill="none" stroke="black" points="450,-471 396,-471 396,-435 450,-435 450,-471"/>
<text text-anchor="middle" x="423" y="-449.3" font-family="Times,serif" font-size="14.00">&#45;123</text>
</g>
<!-- 10344488880583956987&#45;&gt;13599179212335366834 -->
<g id="edge4" class="edge">
<title>10344488880583956987&#45;&gt;13599179212335366834</title>
<path fill="none" stroke="black" d="M857.71,-539.12C798.13,-538.76 652.31,-534.54 535,-504 509.09,-497.25 481.6,-485.07 460.35,-474.42"/>
<polygon fill="black" stroke="black" points="461.99,-471.33 451.49,-469.88 458.79,-477.56 461.99,-471.33"/>
<text text-anchor="middle" x="546.5" y="-492.8" font-family="Times,serif" font-size="14.00">f2f3</text>
</g>
<!-- 1398613373643215962 -->
<g id="node8" class="node">
<title>1398613373643215962</title>
<polygon fill="none" stroke="black" points="522,-471 468,-471 468,-435 522,-435 522,-471"/>
<text text-anchor="middle" x="495" y="-449.3" font-family="Times,serif" font-size="14.00">&#45;68</text>
</g>
<!-- 10344488880583956987&#45;&gt;1398613373643215962 -->
<g id="edge5" class="edge">
<title>10344488880583956987&#45;&gt;1398613373643215962</title>
<path fill="none" stroke="black" d="M857.8,-538.5C806.56,-536.94 692.63,-530.5 601,-504 577.31,-497.15 552.29,-485.57 532.51,-475.29"/>
<polygon fill="black" stroke="black" points="534.2,-472.22 523.72,-470.61 530.91,-478.4 534.2,-472.22"/>
<text text-anchor="middle" x="615" y="-492.8" font-family="Times,serif" font-size="14.00">h2h3</text>
</g>
<!-- 15913346555441981649 -->
<g id="node9" class="node">
<title>15913346555441981649</title>
<polygon fill="none" stroke="black" points="594,-471 540,-471 540,-435 594,-435 594,-471"/>
<text text-anchor="middle" x="567" y="-449.3" font-family="Times,serif" font-size="14.00">&#45;32</text>
</g>
<!-- 10344488880583956987&#45;&gt;15913346555441981649 -->
<g id="edge6" class="edge">
<title>10344488880583956987&#45;&gt;15913346555441981649</title>
<path fill="none" stroke="black" d="M857.94,-537.13C816.6,-533.7 735.62,-524.78 670,-504 647.3,-496.81 623.28,-485.4 604.16,-475.29"/>
<polygon fill="black" stroke="black" points="605.87,-472.24 595.41,-470.57 602.54,-478.4 605.87,-472.24"/>
<text text-anchor="middle" x="683.5" y="-492.8" font-family="Times,serif" font-size="14.00">b1c3</text>
</g>
<!-- 16352636374833891929 -->
<g id="node10" class="node">
<title>16352636374833891929</title>
<polygon fill="none" stroke="black" points="666,-471 612,-471 612,-435 666,-435 666,-471"/>
<text text-anchor="middle" x="639" y="-449.3" font-family="Times,serif" font-size="14.00">&#45;119</text>
</g>
<!-- 10344488880583956987&#45;&gt;16352636374833891929 -->
<g id="edge7" class="edge">
<title>10344488880583956987&#45;&gt;16352636374833891929</title>
<path fill="none" stroke="black" d="M858.57,-535.08C827.76,-530.02 775.62,-519.92 733,-504 713.64,-496.77 693.26,-486.32 676.45,-476.84"/>
<polygon fill="black" stroke="black" points="678.21,-473.81 667.79,-471.85 674.71,-479.88 678.21,-473.81"/>
<text text-anchor="middle" x="744.5" y="-492.8" font-family="Times,serif" font-size="14.00">f2f4</text>
</g>
<!-- 16878741922012378478 -->
<g id="node11" class="node">
<title>16878741922012378478</title>
<polygon fill="none" stroke="black" points="738,-471 684,-471 684,-435 738,-435 738,-471"/>
<text text-anchor="middle" x="711" y="-449.3" font-family="Times,serif" font-size="14.00">&#45;32</text>
</g>
<!-- 10344488880583956987&#45;&gt;16878741922012378478 -->
<g id="edge8" class="edge">
<title>10344488880583956987&#45;&gt;16878741922012378478</title>
<path fill="none" stroke="black" d="M860.45,-532.34C839.75,-526.27 809.66,-516.38 785,-504 770.43,-496.68 755.33,-486.93 742.61,-477.99"/>
<polygon fill="black" stroke="black" points="744.78,-475.24 734.62,-472.25 740.7,-480.93 744.78,-475.24"/>
<text text-anchor="middle" x="799" y="-492.8" font-family="Times,serif" font-size="14.00">d2d3</text>
</g>
<!-- 18326439103924083712 -->
<g id="node12" class="node">
<title>18326439103924083712</title>
<polygon fill="none" stroke="black" points="810,-471 756,-471 756,-435 810,-435 810,-471"/>
<text text-anchor="middle" x="783" y="-449.3" font-family="Times,serif" font-size="14.00">&#45;77</text>
</g>
<!-- 10344488880583956987&#45;&gt;18326439103924083712 -->
<g id="edge9" class="edge">
<title>10344488880583956987&#45;&gt;18326439103924083712</title>
<path fill="none" stroke="black" d="M865.17,-527.31C854.9,-520.91 842.38,-512.56 832,-504 822.95,-496.54 813.76,-487.6 805.83,-479.36"/>
<polygon fill="black" stroke="black" points="808.51,-477.1 799.1,-472.21 803.41,-481.89 808.51,-477.1"/>
<text text-anchor="middle" x="845" y="-492.8" font-family="Times,serif" font-size="14.00">c2c3</text>
</g>
<!-- 2135120528622142740 -->
<g id="node13" class="node">
<title>2135120528622142740</title>
<polygon fill="none" stroke="black" points="882,-471 828,-471 828,-435 882,-435 882,-471"/>
<text text-anchor="middle" x="855" y="-449.3" font-family="Times,serif" font-size="14.00">&#45;113</text>
</g>
<!-- 10344488880583956987&#45;&gt;2135120528622142740 -->
<g id="edge10" class="edge">
<title>10344488880583956987&#45;&gt;2135120528622142740</title>
<path fill="none" stroke="black" d="M875.12,-523.07C871.84,-517.24 868.42,-510.48 866,-504 863.46,-497.2 861.42,-489.64 859.83,-482.51"/>
<polygon fill="black" stroke="black" points="863.31,-482.06 857.9,-472.95 856.44,-483.45 863.31,-482.06"/>
<text text-anchor="middle" x="880" y="-492.8" font-family="Times,serif" font-size="14.00">b2b3</text>
</g>
<!-- 3288554891789663229 -->
<g id="node14" class="node">
<title>3288554891789663229</title>
<polygon fill="none" stroke="black" points="954,-471 900,-471 900,-435 954,-435 954,-471"/>
<text text-anchor="middle" x="927" y="-449.3" font-family="Times,serif" font-size="14.00">&#45;54</text>
</g>
<!-- 10344488880583956987&#45;&gt;3288554891789663229 -->
<g id="edge11" class="edge">
<title>10344488880583956987&#45;&gt;3288554891789663229</title>
<path fill="none" stroke="black" d="M893.1,-522.61C898.85,-510.96 906.72,-495.04 913.43,-481.47"/>
<polygon fill="black" stroke="black" points="916.53,-483.09 917.82,-472.57 910.26,-479.99 916.53,-483.09"/>
<text text-anchor="middle" x="922" y="-492.8" font-family="Times,serif" font-size="14.00">a2a4</text>
</g>
<!-- 332868321951244937 -->
<g id="node15" class="node">
<title>332868321951244937</title>
<polygon fill="none" stroke="black" points="1026,-471 972,-471 972,-435 1026,-435 1026,-471"/>
<text text-anchor="middle" x="999" y="-449.3" font-family="Times,serif" font-size="14.00">&#45;104</text>
</g>
<!-- 10344488880583956987&#45;&gt;332868321951244937 -->
<g id="edge12" class="edge">
<title>10344488880583956987&#45;&gt;332868321951244937</title>
<path fill="none" stroke="black" d="M904.62,-527.07C915.04,-520.55 927.94,-512.15 939,-504 949.7,-496.12 961,-486.94 970.87,-478.62"/>
<polygon fill="black" stroke="black" points="972.99,-481.41 978.33,-472.26 968.45,-476.09 972.99,-481.41"/>
<text text-anchor="middle" x="971.5" y="-492.8" font-family="Times,serif" font-size="14.00">b1a3</text>
</g>
<!-- 3402715794214544369 -->
<g id="node16" class="node">
<title>3402715794214544369</title>
<polygon fill="none" stroke="black" points="1098,-471 1044,-471 1044,-435 1098,-435 1098,-471"/>
<text text-anchor="middle" x="1071" y="-449.3" font-family="Times,serif" font-size="14.00">&#45;175</text>
</g>
<!-- 10344488880583956987&#45;&gt;3402715794214544369 -->
<g id="edge13" class="edge">
<title>10344488880583956987&#45;&gt;3402715794214544369</title>
<path fill="none" stroke="black" d="M909.98,-532.3C931.43,-526.14 962.93,-516.15 989,-504 1005.21,-496.45 1022.23,-486.45 1036.54,-477.37"/>
<polygon fill="black" stroke="black" points="1038.19,-480.47 1044.69,-472.11 1034.39,-474.59 1038.19,-480.47"/>
<text text-anchor="middle" x="1031" y="-492.8" font-family="Times,serif" font-size="14.00">b2b4</text>
</g>
<!-- 4616230341602955834 -->
<g id="node17" class="node">
<title>4616230341602955834</title>
<polygon fill="none" stroke="black" points="1170,-471 1116,-471 1116,-435 1170,-435 1170,-471"/>
<text text-anchor="middle" x="1143" y="-449.3" font-family="Times,serif" font-size="14.00">&#45;4</text>
</g>
<!-- 10344488880583956987&#45;&gt;4616230341602955834 -->
<g id="edge14" class="edge">
<title>10344488880583956987&#45;&gt;4616230341602955834</title>
<path fill="none" stroke="black" d="M911.48,-535.67C944.43,-531 1002.09,-521.1 1049,-504 1068.42,-496.92 1088.8,-486.49 1105.6,-476.98"/>
<polygon fill="black" stroke="black" points="1107.35,-480.02 1114.25,-471.98 1103.85,-473.96 1107.35,-480.02"/>
<text text-anchor="middle" x="1096" y="-492.8" font-family="Times,serif" font-size="14.00">g1h3</text>
</g>
<!-- 5982257985376497937 -->
<g id="node18" class="node">
<title>5982257985376497937</title>
<polygon fill="none" stroke="black" points="1242,-471 1188,-471 1188,-435 1242,-435 1242,-471"/>
<text text-anchor="middle" x="1215" y="-449.3" font-family="Times,serif" font-size="14.00">&#45;47</text>
</g>
<!-- 10344488880583956987&#45;&gt;5982257985376497937 -->
<g id="edge15" class="edge">
<title>10344488880583956987&#45;&gt;5982257985376497937</title>
<path fill="none" stroke="black" d="M912.05,-537.56C955.53,-534.65 1043.24,-526.33 1114,-504 1135.94,-497.08 1159.03,-485.97 1177.59,-475.97"/>
<polygon fill="black" stroke="black" points="1179.28,-479.04 1186.35,-471.15 1175.9,-472.91 1179.28,-479.04"/>
<text text-anchor="middle" x="1166" y="-492.8" font-family="Times,serif" font-size="14.00">h2h4</text>
</g>
<!-- 659458034608077048 -->
<g id="node19" class="node">
<title>659458034608077048</title>
<polygon fill="none" stroke="black" points="1314,-471 1260,-471 1260,-435 1314,-435 1314,-471"/>
<text text-anchor="middle" x="1287" y="-449.3" font-family="Times,serif" font-size="14.00">70</text>
</g>
<!-- 10344488880583956987&#45;&gt;659458034608077048 -->
<g id="edge16" class="edge">
<title>10344488880583956987&#45;&gt;659458034608077048</title>
<path fill="none" stroke="black" d="M912.41,-538.83C965.78,-537.84 1086.93,-532.36 1184,-504 1206.7,-497.37 1230.55,-486.1 1249.57,-475.94"/>
<polygon fill="black" stroke="black" points="1251.19,-479.05 1258.28,-471.17 1247.83,-472.91 1251.19,-479.05"/>
<text text-anchor="middle" x="1236" y="-492.8" font-family="Times,serif" font-size="14.00">e2e3</text>
</g>
<!-- 6674692852069182747 -->
<g id="node20" class="node">
<title>6674692852069182747</title>
<polygon fill="none" stroke="black" points="1386,-471 1332,-471 1332,-435 1386,-435 1386,-471"/>
<text text-anchor="middle" x="1359" y="-449.3" font-family="Times,serif" font-size="14.00">&#45;47</text>
</g>
<!-- 10344488880583956987&#45;&gt;6674692852069182747 -->
<g id="edge17" class="edge">
<title>10344488880583956987&#45;&gt;6674692852069182747</title>
<path fill="none" stroke="black" d="M912.35,-539.58C974.24,-540.21 1129.22,-537.95 1253,-504 1276.79,-497.48 1301.81,-485.92 1321.57,-475.56"/>
<polygon fill="black" stroke="black" points="1323.19,-478.66 1330.34,-470.84 1319.88,-472.5 1323.19,-478.66"/>
<text text-anchor="middle" x="1306" y="-492.8" font-family="Times,serif" font-size="14.00">a2a3</text>
</g>
<!-- 7412989344985918749 -->
<g id="node21" class="node">
<title>7412989344985918749</title>
<polygon fill="none" stroke="black" points="1458,-471 1404,-471 1404,-435 1458,-435 1458,-471"/>
<text text-anchor="middle" x="1431" y="-449.3" font-family="Times,serif" font-size="14.00">&#45;64</text>
</g>
<!-- 10344488880583956987&#45;&gt;7412989344985918749 -->
<g id="edge18" class="edge">
<title>10344488880583956987&#45;&gt;7412989344985918749</title>
<path fill="none" stroke="black" d="M912.14,-538.07C995.14,-535.03 1244.66,-524.4 1323,-504 1347.52,-497.62 1373.33,-485.87 1393.57,-475.37"/>
<polygon fill="black" stroke="black" points="1395.09,-478.53 1402.27,-470.74 1391.8,-472.35 1395.09,-478.53"/>
<text text-anchor="middle" x="1377" y="-492.8" font-family="Times,serif" font-size="14.00">g2g3</text>
</g>
<!-- 7677524599377637327 -->
<g id="node22" class="node">
<title>7677524599377637327</title>
<polygon fill="none" stroke="black" points="1530,-471 1476,-471 1476,-435 1530,-435 1530,-471"/>
<text text-anchor="middle" x="1503" y="-449.3" font-family="Times,serif" font-size="14.00">&#45;75</text>
</g>
<!-- 10344488880583956987&#45;&gt;7677524599377637327 -->
<g id="edge19" class="edge">
<title>10344488880583956987&#45;&gt;7677524599377637327</title>
<path fill="none" stroke="black" d="M912.3,-538.42C1004.28,-536.26 1302.32,-527.58 1395,-504 1419.55,-497.75 1445.37,-486.02 1465.6,-475.49"/>
<polygon fill="black" stroke="black" points="1467.12,-478.64 1474.29,-470.84 1463.83,-472.46 1467.12,-478.64"/>
<text text-anchor="middle" x="1449" y="-492.8" font-family="Times,serif" font-size="14.00">c2c4</text>
</g>
<!-- 9346375796045690536 -->
<g id="node23" class="node">
<title>9346375796045690536</title>
<polygon fill="none" stroke="black" points="1629,-471 1575,-471 1575,-435 1629,-435 1629,-471"/>
<text text-anchor="middle" x="1602" y="-449.3" font-family="Times,serif" font-size="14.00">40</text>
</g>
<!-- 10344488880583956987&#45;&gt;9346375796045690536 -->
<g id="edge20" class="edge">
<title>10344488880583956987&#45;&gt;9346375796045690536</title>
<path fill="none" stroke="black" d="M912.13,-538.41C1011.88,-536.1 1358.07,-526.58 1466,-504 1500.19,-496.85 1537.31,-482.74 1564.11,-471.33"/>
<polygon fill="black" stroke="black" points="1565.4,-474.59 1573.18,-467.4 1562.62,-468.17 1565.4,-474.59"/>
<text text-anchor="middle" x="1528.5" y="-492.8" font-family="Times,serif" font-size="14.00">g1f3</text>
</g>
<!-- 14405398263037752091 -->
<g id="node24" class="node">
<title>14405398263037752091</title>
<ellipse fill="none" stroke="black" cx="27" cy="-366" rx="27" ry="18"/>
<text text-anchor="middle" x="27" y="-362.3" font-family="Times,serif" font-size="14.00">197</text>
</g>
<!-- 10674508394757827255&#45;&gt;14405398263037752091 -->
<g id="edge21" class="edge">
<title>10674508394757827255&#45;&gt;14405398263037752091</title>
<path fill="none" stroke="black" d="M143.78,-439.07C127.31,-431.16 108.01,-421.68 100,-417 84.21,-407.76 67.31,-396.3 53.75,-386.68"/>
<polygon fill="black" stroke="black" points="55.93,-383.93 45.77,-380.94 51.85,-389.62 55.93,-383.93"/>
<text text-anchor="middle" x="113" y="-405.8" font-family="Times,serif" font-size="14.00">a7a6</text>
</g>
<!-- 3350762587349647962 -->
<g id="node25" class="node">
<title>3350762587349647962</title>
<ellipse fill="none" stroke="black" cx="99" cy="-366" rx="27" ry="18"/>
<text text-anchor="middle" x="99" y="-362.3" font-family="Times,serif" font-size="14.00">212</text>
</g>
<!-- 10674508394757827255&#45;&gt;3350762587349647962 -->
<g id="edge22" class="edge">
<title>10674508394757827255&#45;&gt;3350762587349647962</title>
<path fill="none" stroke="black" d="M156.01,-434.58C151.2,-428.98 145.87,-422.74 141,-417 133.86,-408.58 126.07,-399.34 119.17,-391.11"/>
<polygon fill="black" stroke="black" points="121.91,-388.93 112.8,-383.51 116.54,-393.42 121.91,-388.93"/>
<text text-anchor="middle" x="154" y="-405.8" font-family="Times,serif" font-size="14.00">c7c6</text>
</g>
<!-- 7689439737213395250 -->
<g id="node26" class="node">
<title>7689439737213395250</title>
<ellipse fill="none" stroke="black" cx="171" cy="-366" rx="27" ry="18"/>
<text text-anchor="middle" x="171" y="-362.3" font-family="Times,serif" font-size="14.00">282</text>
</g>
<!-- 10674508394757827255&#45;&gt;7689439737213395250 -->
<g id="edge23" class="edge">
<title>10674508394757827255&#45;&gt;7689439737213395250</title>
<path fill="none" stroke="black" d="M171,-434.8C171,-423.58 171,-408.67 171,-395.69"/>
<polygon fill="black" stroke="black" points="174.5,-395.98 171,-385.98 167.5,-395.98 174.5,-395.98"/>
<text text-anchor="middle" x="185" y="-405.8" font-family="Times,serif" font-size="14.00">b7b6</text>
</g>
<!-- 12979644518318520733 -->
<g id="node32" class="node">
<title>12979644518318520733</title>
<ellipse fill="none" stroke="black" cx="243" cy="-366" rx="27" ry="18"/>
<text text-anchor="middle" x="243" y="-362.3" font-family="Times,serif" font-size="14.00">70</text>
</g>
<!-- 12997426211289158427&#45;&gt;12979644518318520733 -->
<g id="edge28" class="edge">
<title>12997426211289158427&#45;&gt;12979644518318520733</title>
<path fill="none" stroke="black" d="M328.88,-434.59C311.54,-420.94 287.36,-401.92 269.08,-387.53"/>
<polygon fill="black" stroke="black" points="271.33,-384.85 261.31,-381.41 267,-390.35 271.33,-384.85"/>
<text text-anchor="middle" x="317" y="-405.8" font-family="Times,serif" font-size="14.00">e7e6</text>
</g>
<!-- 16692904241751001783 -->
<g id="node36" class="node">
<title>16692904241751001783</title>
<ellipse fill="none" stroke="black" cx="351" cy="-366" rx="27" ry="18"/>
<text text-anchor="middle" x="351" y="-362.3" font-family="Times,serif" font-size="14.00">187</text>
</g>
<!-- 12997426211289158427&#45;&gt;16692904241751001783 -->
<g id="edge29" class="edge">
<title>12997426211289158427&#45;&gt;16692904241751001783</title>
<path fill="none" stroke="black" d="M351,-434.8C351,-423.58 351,-408.67 351,-395.69"/>
<polygon fill="black" stroke="black" points="354.5,-395.98 351,-385.98 347.5,-395.98 354.5,-395.98"/>
<text text-anchor="middle" x="364" y="-405.8" font-family="Times,serif" font-size="14.00">a7a6</text>
</g>
<!-- 9450743668453842151 -->
<g id="node37" class="node">
<title>9450743668453842151</title>
<ellipse fill="none" stroke="black" cx="478" cy="-366" rx="27" ry="18"/>
<text text-anchor="middle" x="478" y="-362.3" font-family="Times,serif" font-size="14.00">143</text>
</g>
<!-- 12997426211289158427&#45;&gt;9450743668453842151 -->
<g id="edge30" class="edge">
<title>12997426211289158427&#45;&gt;9450743668453842151</title>
<path fill="none" stroke="black" d="M377.01,-434.59C398.28,-420.36 428.29,-400.27 450.07,-385.69"/>
<polygon fill="black" stroke="black" points="451.81,-388.74 458.18,-380.27 447.92,-382.92 451.81,-388.74"/>
<text text-anchor="middle" x="437" y="-405.8" font-family="Times,serif" font-size="14.00">d7d6</text>
</g>
<!-- 12942782176371871638 -->
<g id="node31" class="node">
<title>12942782176371871638</title>
<ellipse fill="none" stroke="black" cx="550" cy="-366" rx="27" ry="18"/>
<text text-anchor="middle" x="550" y="-362.3" font-family="Times,serif" font-size="14.00">&#45;68</text>
</g>
<!-- 1398613373643215962&#45;&gt;12942782176371871638 -->
<g id="edge31" class="edge">
<title>1398613373643215962&#45;&gt;12942782176371871638</title>
<path fill="none" stroke="blue" d="M506.13,-434.8C514.01,-422.62 524.71,-406.08 533.57,-392.39"/>
<polygon fill="blue" stroke="blue" points="536.31,-394.59 538.81,-384.3 530.44,-390.79 536.31,-394.59"/>
<text text-anchor="middle" x="537" y="-405.8" font-family="Times,serif" font-size="14.00" fill="blue">null</text>
</g>
<!-- 4657257225927953910 -->
<g id="node38" class="node">
<title>4657257225927953910</title>
<ellipse fill="none" stroke="black" cx="686" cy="-366" rx="27" ry="18"/>
<text text-anchor="middle" x="686" y="-362.3" font-family="Times,serif" font-size="14.00">70</text>
</g>
<!-- 1398613373643215962&#45;&gt;4657257225927953910 -->
<g id="edge32" class="edge">
<title>1398613373643215962&#45;&gt;4657257225927953910</title>
<path fill="none" stroke="black" d="M522.48,-438.93C525.35,-437.59 528.23,-436.26 531,-435 572.98,-415.88 621.77,-394.64 653.22,-381.07"/>
<polygon fill="black" stroke="black" points="654.39,-384.37 662.19,-377.2 651.62,-377.94 654.39,-384.37"/>
<text text-anchor="middle" x="616" y="-405.8" font-family="Times,serif" font-size="14.00">a7a6</text>
</g>
<!-- 6818933486649558988 -->
<g id="node56" class="node">
<title>6818933486649558988</title>
<ellipse fill="none" stroke="black" cx="783" cy="-366" rx="27" ry="18"/>
<text text-anchor="middle" x="783" y="-362.3" font-family="Times,serif" font-size="14.00">&#45;77</text>
</g>
<!-- 18326439103924083712&#45;&gt;6818933486649558988 -->
<g id="edge46" class="edge">
<title>18326439103924083712&#45;&gt;6818933486649558988</title>
<path fill="none" stroke="blue" d="M783,-434.8C783,-423.58 783,-408.67 783,-395.69"/>
<polygon fill="blue" stroke="blue" points="786.5,-395.98 783,-385.98 779.5,-395.98 786.5,-395.98"/>
<text text-anchor="middle" x="794" y="-405.8" font-family="Times,serif" font-size="14.00" fill="blue">null</text>
</g>
<!-- 9109219578749985361 -->
<g id="node59" class="node">
<title>9109219578749985361</title>
<ellipse fill="none" stroke="black" cx="927" cy="-366" rx="27" ry="18"/>
<text text-anchor="middle" x="927" y="-362.3" font-family="Times,serif" font-size="14.00">64</text>
</g>
<!-- 3288554891789663229&#45;&gt;9109219578749985361 -->
<g id="edge48" class="edge">
<title>3288554891789663229&#45;&gt;9109219578749985361</title>
<path fill="none" stroke="black" d="M927,-434.8C927,-423.58 927,-408.67 927,-395.69"/>
<polygon fill="black" stroke="black" points="930.5,-395.98 927,-385.98 923.5,-395.98 930.5,-395.98"/>
<text text-anchor="middle" x="940" y="-405.8" font-family="Times,serif" font-size="14.00">a7a6</text>
</g>
<!-- 16205365076786776566 -->
<g id="node50" class="node">
<title>16205365076786776566</title>
<ellipse fill="none" stroke="black" cx="1143" cy="-366" rx="27" ry="18"/>
<text text-anchor="middle" x="1143" y="-362.3" font-family="Times,serif" font-size="14.00">&#45;4</text>
</g>
<!-- 4616230341602955834&#45;&gt;16205365076786776566 -->
<g id="edge51" class="edge">
<title>4616230341602955834&#45;&gt;16205365076786776566</title>
<path fill="none" stroke="blue" d="M1143,-434.8C1143,-423.58 1143,-408.67 1143,-395.69"/>
<polygon fill="blue" stroke="blue" points="1146.5,-395.98 1143,-385.98 1139.5,-395.98 1146.5,-395.98"/>
<text text-anchor="middle" x="1154" y="-405.8" font-family="Times,serif" font-size="14.00" fill="blue">null</text>
</g>
<!-- 17577583799668468445 -->
<g id="node55" class="node">
<title>17577583799668468445</title>
<ellipse fill="none" stroke="black" cx="1215" cy="-366" rx="27" ry="18"/>
<text text-anchor="middle" x="1215" y="-362.3" font-family="Times,serif" font-size="14.00">&#45;47</text>
</g>
<!-- 5982257985376497937&#45;&gt;17577583799668468445 -->
<g id="edge53" class="edge">
<title>5982257985376497937&#45;&gt;17577583799668468445</title>
<path fill="none" stroke="blue" d="M1215,-434.8C1215,-423.58 1215,-408.67 1215,-395.69"/>
<polygon fill="blue" stroke="blue" points="1218.5,-395.98 1215,-385.98 1211.5,-395.98 1218.5,-395.98"/>
<text text-anchor="middle" x="1226" y="-405.8" font-family="Times,serif" font-size="14.00" fill="blue">null</text>
</g>
<!-- 6552706839942046036 -->
<g id="node63" class="node">
<title>6552706839942046036</title>
<ellipse fill="none" stroke="black" cx="1287" cy="-366" rx="27" ry="18"/>
<text text-anchor="middle" x="1287" y="-362.3" font-family="Times,serif" font-size="14.00">185</text>
</g>
<!-- 659458034608077048&#45;&gt;6552706839942046036 -->
<g id="edge56" class="edge">
<title>659458034608077048&#45;&gt;6552706839942046036</title>
<path fill="none" stroke="black" d="M1287,-434.8C1287,-423.58 1287,-408.67 1287,-395.69"/>
<polygon fill="black" stroke="black" points="1290.5,-395.98 1287,-385.98 1283.5,-395.98 1290.5,-395.98"/>
<text text-anchor="middle" x="1300" y="-405.8" font-family="Times,serif" font-size="14.00">a7a6</text>
</g>
<!-- 3830596501516055729 -->
<g id="node60" class="node">
<title>3830596501516055729</title>
<ellipse fill="none" stroke="black" cx="1404" cy="-366" rx="27" ry="18"/>
<text text-anchor="middle" x="1404" y="-362.3" font-family="Times,serif" font-size="14.00">86</text>
</g>
<!-- 7412989344985918749&#45;&gt;3830596501516055729 -->
<g id="edge57" class="edge">
<title>7412989344985918749&#45;&gt;3830596501516055729</title>
<path fill="none" stroke="black" d="M1425.54,-434.8C1421.89,-423.32 1417.01,-407.96 1412.82,-394.77"/>
<polygon fill="black" stroke="black" points="1416.19,-393.8 1409.82,-385.33 1409.51,-395.92 1416.19,-393.8"/>
<text text-anchor="middle" x="1433" y="-405.8" font-family="Times,serif" font-size="14.00">a7a6</text>
</g>
<!-- 14589740120199427075 -->
<g id="node39" class="node">
<title>14589740120199427075</title>
<ellipse fill="none" stroke="black" cx="1503" cy="-366" rx="27" ry="18"/>
<text text-anchor="middle" x="1503" y="-362.3" font-family="Times,serif" font-size="14.00">&#45;75</text>
</g>
<!-- 7677524599377637327&#45;&gt;14589740120199427075 -->
<g id="edge58" class="edge">
<title>7677524599377637327&#45;&gt;14589740120199427075</title>
<path fill="none" stroke="blue" d="M1503,-434.8C1503,-423.58 1503,-408.67 1503,-395.69"/>
<polygon fill="blue" stroke="blue" points="1506.5,-395.98 1503,-385.98 1499.5,-395.98 1506.5,-395.98"/>
<text text-anchor="middle" x="1514" y="-405.8" font-family="Times,serif" font-size="14.00" fill="blue">null</text>
</g>
<!-- 15167497879877021444 -->
<g id="node40" class="node">
<title>15167497879877021444</title>
<ellipse fill="none" stroke="black" cx="1683" cy="-366" rx="27" ry="18"/>
<text text-anchor="middle" x="1683" y="-362.3" font-family="Times,serif" font-size="14.00">172</text>
</g>
<!-- 9346375796045690536&#45;&gt;15167497879877021444 -->
<g id="edge61" class="edge">
<title>9346375796045690536&#45;&gt;15167497879877021444</title>
<path fill="none" stroke="black" d="M1618.39,-434.8C1630.72,-421.86 1647.73,-404.01 1661.2,-389.87"/>
<polygon fill="black" stroke="black" points="1663.65,-392.38 1668.02,-382.72 1658.58,-387.55 1663.65,-392.38"/>
<text text-anchor="middle" x="1660" y="-405.8" font-family="Times,serif" font-size="14.00">a7a6</text>
</g>
<!-- 11057849349261061972 -->
<g id="node27" class="node">
<title>11057849349261061972</title>
<polygon fill="none" stroke="black" points="1566,-297 1512,-297 1512,-261 1566,-261 1566,-297"/>
<text text-anchor="middle" x="1539" y="-275.3" font-family="Times,serif" font-size="14.00">&#45;76</text>
</g>
<!-- 12116633593230760584 -->
<g id="node28" class="node">
<title>12116633593230760584</title>
<ellipse fill="none" stroke="black" cx="639" cy="-192" rx="27" ry="18"/>
<text text-anchor="middle" x="639" y="-188.3" font-family="Times,serif" font-size="14.00">182</text>
</g>
<!-- 4087162301238199445 -->
<g id="node29" class="node">
<title>4087162301238199445</title>
<polygon fill="none" stroke="black" points="666,-123 612,-123 612,-87 666,-87 666,-123"/>
<text text-anchor="middle" x="639" y="-101.3" font-family="Times,serif" font-size="14.00">423</text>
</g>
<!-- 12116633593230760584&#45;&gt;4087162301238199445 -->
<g id="edge24" class="edge">
<title>12116633593230760584&#45;&gt;4087162301238199445</title>
<path fill="none" stroke="black" d="M639,-173.8C639,-162.58 639,-147.67 639,-134.69"/>
<polygon fill="black" stroke="black" points="642.5,-134.98 639,-124.98 635.5,-134.98 642.5,-134.98"/>
<text text-anchor="middle" x="652.5" y="-144.8" font-family="Times,serif" font-size="14.00">e4d5</text>
</g>
<!-- 2748428020887360625 -->
<g id="node58" class="node">
<title>2748428020887360625</title>
<ellipse fill="none" stroke="black" cx="639" cy="-18" rx="27" ry="18"/>
<text text-anchor="middle" x="639" y="-14.3" font-family="Times,serif" font-size="14.00">273</text>
</g>
<!-- 4087162301238199445&#45;&gt;2748428020887360625 -->
<g id="edge50" class="edge">
<title>4087162301238199445&#45;&gt;2748428020887360625</title>
<path fill="none" stroke="black" d="M639,-86.8C639,-75.58 639,-60.67 639,-47.69"/>
<polygon fill="black" stroke="black" points="642.5,-47.98 639,-37.98 635.5,-47.98 642.5,-47.98"/>
<text text-anchor="middle" x="653" y="-57.8" font-family="Times,serif" font-size="14.00">d8d5</text>
</g>
<!-- 12235960888196462864 -->
<g id="node30" class="node">
<title>12235960888196462864</title>
<polygon fill="none" stroke="black" points="1422,-297 1368,-297 1368,-261 1422,-261 1422,-297"/>
<text text-anchor="middle" x="1395" y="-275.3" font-family="Times,serif" font-size="14.00">&#45;123</text>
</g>
<!-- 1336838538875455782 -->
<g id="node33" class="node">
<title>1336838538875455782</title>
<polygon fill="none" stroke="black" points="90,-297 36,-297 36,-261 90,-261 90,-297"/>
<text text-anchor="middle" x="63" y="-275.3" font-family="Times,serif" font-size="14.00">&#45;50</text>
</g>
<!-- 12979644518318520733&#45;&gt;1336838538875455782 -->
<g id="edge25" class="edge">
<title>12979644518318520733&#45;&gt;1336838538875455782</title>
<path fill="none" stroke="black" d="M221.91,-354.4C217.07,-352.14 211.9,-349.88 207,-348 181.01,-338.03 172.49,-341.2 147,-330 130.34,-322.67 112.89,-312.71 98.25,-303.61"/>
<polygon fill="black" stroke="black" points="100.19,-300.7 89.88,-298.29 96.44,-306.61 100.19,-300.7"/>
<text text-anchor="middle" x="159.5" y="-318.8" font-family="Times,serif" font-size="14.00">f1d3</text>
</g>
<!-- 3086146142418943825 -->
<g id="node34" class="node">
<title>3086146142418943825</title>
<polygon fill="none" stroke="black" points="162,-297 108,-297 108,-261 162,-261 162,-297"/>
<text text-anchor="middle" x="135" y="-275.3" font-family="Times,serif" font-size="14.00">&#45;9</text>
</g>
<!-- 12979644518318520733&#45;&gt;3086146142418943825 -->
<g id="edge26" class="edge">
<title>12979644518318520733&#45;&gt;3086146142418943825</title>
<path fill="none" stroke="black" d="M224.59,-352.39C215.28,-345.88 203.9,-337.71 194,-330 183.7,-321.98 172.71,-312.84 163.05,-304.58"/>
<polygon fill="black" stroke="black" points="165.61,-302.17 155.74,-298.3 161.04,-307.48 165.61,-302.17"/>
<text text-anchor="middle" x="206.5" y="-318.8" font-family="Times,serif" font-size="14.00">f1e2</text>
</g>
<!-- 4241774596664263872 -->
<g id="node35" class="node">
<title>4241774596664263872</title>
<polygon fill="none" stroke="black" points="234,-297 180,-297 180,-261 234,-261 234,-297"/>
<text text-anchor="middle" x="207" y="-275.3" font-family="Times,serif" font-size="14.00">&#45;99</text>
</g>
<!-- 12979644518318520733&#45;&gt;4241774596664263872 -->
<g id="edge27" class="edge">
<title>12979644518318520733&#45;&gt;4241774596664263872</title>
<path fill="none" stroke="black" d="M235.89,-348.21C231.02,-336.72 224.45,-321.21 218.81,-307.89"/>
<polygon fill="black" stroke="black" points="222.06,-306.58 214.94,-298.74 215.61,-309.31 222.06,-306.58"/>
<text text-anchor="middle" x="240.5" y="-318.8" font-family="Times,serif" font-size="14.00">f1c4</text>
</g>
<!-- 16692904241751001783&#45;&gt;10004225437214595349 -->
<g id="edge42" class="edge">
<title>16692904241751001783&#45;&gt;10004225437214595349</title>
<path fill="none" stroke="black" d="M338.13,-349.8C327.81,-337.62 313.1,-320.26 300.93,-305.89"/>
<polygon fill="black" stroke="black" points="303.86,-303.93 294.73,-298.56 298.52,-308.46 303.86,-303.93"/>
<text text-anchor="middle" x="331.5" y="-318.8" font-family="Times,serif" font-size="14.00">f2f4</text>
</g>
<!-- 2810711665436748380 -->
<g id="node52" class="node">
<title>2810711665436748380</title>
<polygon fill="none" stroke="black" points="378,-297 324,-297 324,-261 378,-261 378,-297"/>
<text text-anchor="middle" x="351" y="-275.3" font-family="Times,serif" font-size="14.00">4</text>
</g>
<!-- 16692904241751001783&#45;&gt;2810711665436748380 -->
<g id="edge43" class="edge">
<title>16692904241751001783&#45;&gt;2810711665436748380</title>
<path fill="none" stroke="black" d="M351,-347.8C351,-336.58 351,-321.67 351,-308.69"/>
<polygon fill="black" stroke="black" points="354.5,-308.98 351,-298.98 347.5,-308.98 354.5,-308.98"/>
<text text-anchor="middle" x="364" y="-318.8" font-family="Times,serif" font-size="14.00">e4e5</text>
</g>
<!-- 8325240005565371361 -->
<g id="node53" class="node">
<title>8325240005565371361</title>
<polygon fill="none" stroke="black" points="450,-297 396,-297 396,-261 450,-261 450,-297"/>
<text text-anchor="middle" x="423" y="-275.3" font-family="Times,serif" font-size="14.00">55</text>
</g>
<!-- 16692904241751001783&#45;&gt;8325240005565371361 -->
<g id="edge44" class="edge">
<title>16692904241751001783&#45;&gt;8325240005565371361</title>
<path fill="none" stroke="black" d="M363.88,-350.04C369.19,-343.85 375.41,-336.59 381,-330 387.64,-322.17 394.84,-313.62 401.37,-305.85"/>
<polygon fill="black" stroke="black" points="403.94,-308.23 407.68,-298.32 398.58,-303.73 403.94,-308.23"/>
<text text-anchor="middle" x="406.5" y="-318.8" font-family="Times,serif" font-size="14.00">g1e2</text>
</g>
<!-- 8745391844512500859 -->
<g id="node54" class="node">
<title>8745391844512500859</title>
<polygon fill="none" stroke="black" points="522,-297 468,-297 468,-261 522,-261 522,-297"/>
<text text-anchor="middle" x="495" y="-275.3" font-family="Times,serif" font-size="14.00">104</text>
</g>
<!-- 16692904241751001783&#45;&gt;8745391844512500859 -->
<g id="edge45" class="edge">
<title>16692904241751001783&#45;&gt;8745391844512500859</title>
<path fill="none" stroke="black" d="M373.21,-355.51C387.94,-348.94 407.51,-339.67 424,-330 437.24,-322.24 451.17,-312.74 463.16,-304.12"/>
<polygon fill="black" stroke="black" points="465.07,-307.06 471.08,-298.34 460.94,-301.41 465.07,-307.06"/>
<text text-anchor="middle" x="459.5" y="-318.8" font-family="Times,serif" font-size="14.00">f1e2</text>
</g>
<!-- 15531544598975086531 -->
<g id="node47" class="node">
<title>15531544598975086531</title>
<polygon fill="none" stroke="black" points="594,-297 540,-297 540,-261 594,-261 594,-297"/>
<text text-anchor="middle" x="567" y="-275.3" font-family="Times,serif" font-size="14.00">chk</text>
</g>
<!-- 9450743668453842151&#45;&gt;15531544598975086531 -->
<g id="edge62" class="edge">
<title>9450743668453842151&#45;&gt;15531544598975086531</title>
<path fill="none" stroke="black" d="M493.1,-350.58C506.07,-338.19 525.07,-320.04 540.56,-305.25"/>
<polygon fill="black" stroke="black" points="542.84,-307.92 547.65,-298.48 538,-302.85 542.84,-307.92"/>
<text text-anchor="middle" x="540.5" y="-318.8" font-family="Times,serif" font-size="14.00">f1b5</text>
</g>
<!-- 2149075948935092779 -->
<g id="node57" class="node">
<title>2149075948935092779</title>
<polygon fill="none" stroke="black" points="666,-297 612,-297 612,-261 666,-261 666,-297"/>
<text text-anchor="middle" x="639" y="-275.3" font-family="Times,serif" font-size="14.00">72</text>
</g>
<!-- 9450743668453842151&#45;&gt;2149075948935092779 -->
<g id="edge63" class="edge">
<title>9450743668453842151&#45;&gt;2149075948935092779</title>
<path fill="none" stroke="black" d="M499.63,-354.59C504.35,-352.38 509.33,-350.08 514,-348 532.93,-339.57 538.55,-339.42 557,-330 572.57,-322.05 589.13,-312.23 603.27,-303.4"/>
<polygon fill="black" stroke="black" points="604.77,-306.6 611.35,-298.3 601.02,-300.68 604.77,-306.6"/>
<text text-anchor="middle" x="595.5" y="-318.8" font-family="Times,serif" font-size="14.00">f1e2</text>
</g>
<!-- 16324893691944579056 -->
<g id="node51" class="node">
<title>16324893691944579056</title>
<polygon fill="none" stroke="black" points="738,-297 684,-297 684,-261 738,-261 738,-297"/>
<text text-anchor="middle" x="711" y="-275.3" font-family="Times,serif" font-size="14.00">&#45;82</text>
</g>
<!-- 4657257225927953910&#45;&gt;16324893691944579056 -->
<g id="edge52" class="edge">
<title>4657257225927953910&#45;&gt;16324893691944579056</title>
<path fill="none" stroke="black" d="M690.94,-348.21C694.29,-336.83 698.79,-321.52 702.68,-308.29"/>
<polygon fill="black" stroke="black" points="706.01,-309.38 705.47,-298.79 699.29,-307.4 706.01,-309.38"/>
<text text-anchor="middle" x="713" y="-318.8" font-family="Times,serif" font-size="14.00">a2a4</text>
</g>
<!-- 15167497879877021444&#45;&gt;10139460791144395734 -->
<g id="edge33" class="edge">
<title>15167497879877021444&#45;&gt;10139460791144395734</title>
<path fill="none" stroke="black" d="M1657.53,-359.68C1631.86,-353.9 1591.38,-343.63 1558,-330 1539.62,-322.49 1520.21,-312.19 1504.06,-302.89"/>
<polygon fill="black" stroke="black" points="1506.17,-300.07 1495.77,-298.02 1502.62,-306.1 1506.17,-300.07"/>
<text text-anchor="middle" x="1572" y="-318.8" font-family="Times,serif" font-size="14.00">h1g1</text>
</g>
<!-- 15167497879877021444&#45;&gt;11057849349261061972 -->
<g id="edge34" class="edge">
<title>15167497879877021444&#45;&gt;11057849349261061972</title>
<path fill="none" stroke="black" d="M1661.17,-354.99C1647.16,-348.35 1628.72,-339.19 1613,-330 1599.35,-322.02 1584.83,-312.46 1572.3,-303.85"/>
<polygon fill="black" stroke="black" points="1574.6,-301.19 1564.39,-298.35 1570.6,-306.94 1574.6,-301.19"/>
<text text-anchor="middle" x="1625.5" y="-318.8" font-family="Times,serif" font-size="14.00">f3e5</text>
</g>
<!-- 15872435946499375191 -->
<g id="node41" class="node">
<title>15872435946499375191</title>
<polygon fill="none" stroke="black" points="1638,-297 1584,-297 1584,-261 1638,-261 1638,-297"/>
<text text-anchor="middle" x="1611" y="-275.3" font-family="Times,serif" font-size="14.00">&#45;136</text>
</g>
<!-- 15167497879877021444&#45;&gt;15872435946499375191 -->
<g id="edge35" class="edge">
<title>15167497879877021444&#45;&gt;15872435946499375191</title>
<path fill="none" stroke="black" d="M1670.13,-349.8C1659.81,-337.62 1645.1,-320.26 1632.93,-305.89"/>
<polygon fill="black" stroke="black" points="1635.86,-303.93 1626.73,-298.56 1630.52,-308.46 1635.86,-303.93"/>
<text text-anchor="middle" x="1663.5" y="-318.8" font-family="Times,serif" font-size="14.00">f3g1</text>
</g>
<!-- 4001492892089846906 -->
<g id="node42" class="node">
<title>4001492892089846906</title>
<polygon fill="none" stroke="black" points="1710,-297 1656,-297 1656,-261 1710,-261 1710,-297"/>
<text text-anchor="middle" x="1683" y="-275.3" font-family="Times,serif" font-size="14.00">&#45;114</text>
</g>
<!-- 15167497879877021444&#45;&gt;4001492892089846906 -->
<g id="edge36" class="edge">
<title>15167497879877021444&#45;&gt;4001492892089846906</title>
<path fill="none" stroke="black" d="M1683,-347.8C1683,-336.58 1683,-321.67 1683,-308.69"/>
<polygon fill="black" stroke="black" points="1686.5,-308.98 1683,-298.98 1679.5,-308.98 1686.5,-308.98"/>
<text text-anchor="middle" x="1695.5" y="-318.8" font-family="Times,serif" font-size="14.00">f3h4</text>
</g>
<!-- 5289216670788760766 -->
<g id="node43" class="node">
<title>5289216670788760766</title>
<polygon fill="none" stroke="black" points="1782,-297 1728,-297 1728,-261 1782,-261 1782,-297"/>
<text text-anchor="middle" x="1755" y="-275.3" font-family="Times,serif" font-size="14.00">&#45;93</text>
</g>
<!-- 15167497879877021444&#45;&gt;5289216670788760766 -->
<g id="edge37" class="edge">
<title>15167497879877021444&#45;&gt;5289216670788760766</title>
<path fill="none" stroke="black" d="M1695.87,-349.8C1706.19,-337.62 1720.9,-320.26 1733.07,-305.89"/>
<polygon fill="black" stroke="black" points="1735.48,-308.46 1739.27,-298.56 1730.14,-303.93 1735.48,-308.46"/>
<text text-anchor="middle" x="1735.5" y="-318.8" font-family="Times,serif" font-size="14.00">f3d4</text>
</g>
<!-- 6112539967575510535 -->
<g id="node44" class="node">
<title>6112539967575510535</title>
<polygon fill="none" stroke="black" points="1854,-297 1800,-297 1800,-261 1854,-261 1854,-297"/>
<text text-anchor="middle" x="1827" y="-275.3" font-family="Times,serif" font-size="14.00">113</text>
</g>
<!-- 15167497879877021444&#45;&gt;6112539967575510535 -->
<g id="edge38" class="edge">
<title>15167497879877021444&#45;&gt;6112539967575510535</title>
<path fill="none" stroke="black" d="M1704.8,-354.77C1718.55,-348.11 1736.57,-339.01 1752,-330 1765.78,-321.95 1780.49,-312.38 1793.19,-303.77"/>
<polygon fill="black" stroke="black" points="1794.95,-306.81 1801.22,-298.28 1790.99,-301.04 1794.95,-306.81"/>
<text text-anchor="middle" x="1788" y="-318.8" font-family="Times,serif" font-size="14.00">e2e3</text>
</g>
<!-- 8192257329216605119 -->
<g id="node45" class="node">
<title>8192257329216605119</title>
<polygon fill="none" stroke="black" points="1926,-297 1872,-297 1872,-261 1926,-261 1926,-297"/>
<text text-anchor="middle" x="1899" y="-275.3" font-family="Times,serif" font-size="14.00">&#45;11</text>
</g>
<!-- 15167497879877021444&#45;&gt;8192257329216605119 -->
<g id="edge39" class="edge">
<title>15167497879877021444&#45;&gt;8192257329216605119</title>
<path fill="none" stroke="black" d="M1708.28,-359.39C1733.32,-353.45 1772.52,-343.13 1805,-330 1824.48,-322.12 1845.2,-311.38 1862.21,-301.87"/>
<polygon fill="black" stroke="black" points="1863.48,-305.18 1870.45,-297.2 1860.02,-299.09 1863.48,-305.18"/>
<text text-anchor="middle" x="1848.5" y="-318.8" font-family="Times,serif" font-size="14.00">f3g5</text>
</g>
<!-- 95563955884006372 -->
<g id="node46" class="node">
<title>95563955884006372</title>
<polygon fill="none" stroke="black" points="1998,-297 1944,-297 1944,-261 1998,-261 1998,-297"/>
<text text-anchor="middle" x="1971" y="-275.3" font-family="Times,serif" font-size="14.00">50</text>
</g>
<!-- 15167497879877021444&#45;&gt;95563955884006372 -->
<g id="edge40" class="edge">
<title>15167497879877021444&#45;&gt;95563955884006372</title>
<path fill="none" stroke="black" d="M1709.75,-361.99C1745.7,-357.46 1811.31,-347.51 1865,-330 1894.76,-320.29 1902.57,-313.08 1933.87,-297.64"/>
<polygon fill="black" stroke="black" points="1935.02,-300.97 1942.51,-293.47 1931.98,-294.66 1935.02,-300.97"/>
<text text-anchor="middle" x="1913" y="-318.8" font-family="Times,serif" font-size="14.00">a2a3</text>
</g>
<!-- 6094721707387528321 -->
<g id="node62" class="node">
<title>6094721707387528321</title>
<ellipse fill="none" stroke="black" cx="1827" cy="-192" rx="27" ry="18"/>
<text text-anchor="middle" x="1827" y="-188.3" font-family="Times,serif" font-size="14.00">73</text>
</g>
<!-- 6112539967575510535&#45;&gt;6094721707387528321 -->
<g id="edge54" class="edge">
<title>6112539967575510535&#45;&gt;6094721707387528321</title>
<path fill="none" stroke="black" d="M1827,-260.8C1827,-249.58 1827,-234.67 1827,-221.69"/>
<polygon fill="black" stroke="black" points="1830.5,-221.98 1827,-211.98 1823.5,-221.98 1830.5,-221.98"/>
<text text-anchor="middle" x="1840" y="-231.8" font-family="Times,serif" font-size="14.00">e7e6</text>
</g>
<!-- 42111974368066841 -->
<g id="node48" class="node">
<title>42111974368066841</title>
<ellipse fill="none" stroke="black" cx="567" cy="-192" rx="27" ry="18"/>
<text text-anchor="middle" x="567" y="-188.3" font-family="Times,serif" font-size="14.00">166</text>
</g>
<!-- 15531544598975086531&#45;&gt;42111974368066841 -->
<g id="edge41" class="edge">
<title>15531544598975086531&#45;&gt;42111974368066841</title>
<path fill="none" stroke="black" d="M567,-260.8C567,-249.58 567,-234.67 567,-221.69"/>
<polygon fill="black" stroke="black" points="570.5,-221.98 567,-211.98 563.5,-221.98 570.5,-221.98"/>
<text text-anchor="middle" x="580.5" y="-231.8" font-family="Times,serif" font-size="14.00">b8c6</text>
</g>
<!-- 16059181896084920411 -->
<g id="node49" class="node">
<title>16059181896084920411</title>
<polygon fill="none" stroke="black" points="954,-297 900,-297 900,-261 954,-261 954,-297"/>
<text text-anchor="middle" x="927" y="-275.3" font-family="Times,serif" font-size="14.00">&#45;171</text>
</g>
<!-- 7083691918036332811 -->
<g id="node64" class="node">
<title>7083691918036332811</title>
<ellipse fill="none" stroke="black" cx="495" cy="-192" rx="27" ry="18"/>
<text text-anchor="middle" x="495" y="-188.3" font-family="Times,serif" font-size="14.00">275</text>
</g>
<!-- 8745391844512500859&#45;&gt;7083691918036332811 -->
<g id="edge59" class="edge">
<title>8745391844512500859&#45;&gt;7083691918036332811</title>
<path fill="none" stroke="black" d="M495,-260.8C495,-249.58 495,-234.67 495,-221.69"/>
<polygon fill="black" stroke="black" points="498.5,-221.98 495,-211.98 491.5,-221.98 498.5,-221.98"/>
<text text-anchor="middle" x="508" y="-231.8" font-family="Times,serif" font-size="14.00">a6a5</text>
</g>
<!-- 2149075948935092779&#45;&gt;12116633593230760584 -->
<g id="edge47" class="edge">
<title>2149075948935092779&#45;&gt;12116633593230760584</title>
<path fill="none" stroke="black" d="M639,-260.8C639,-249.58 639,-234.67 639,-221.69"/>
<polygon fill="black" stroke="black" points="642.5,-221.98 639,-211.98 635.5,-221.98 642.5,-221.98"/>
<text text-anchor="middle" x="653" y="-231.8" font-family="Times,serif" font-size="14.00">d6d5</text>
</g>
<!-- 9109219578749985361&#45;&gt;16059181896084920411 -->
<g id="edge60" class="edge">
<title>9109219578749985361&#45;&gt;16059181896084920411</title>
<path fill="none" stroke="black" d="M927,-347.8C927,-336.58 927,-321.67 927,-308.69"/>
<polygon fill="black" stroke="black" points="930.5,-308.98 927,-298.98 923.5,-308.98 930.5,-308.98"/>
<text text-anchor="middle" x="941" y="-318.8" font-family="Times,serif" font-size="14.00">b2b4</text>
</g>
<!-- 3830596501516055729&#45;&gt;12235960888196462864 -->
<g id="edge49" class="edge">
<title>3830596501516055729&#45;&gt;12235960888196462864</title>
<path fill="none" stroke="black" d="M1402.18,-347.8C1400.99,-336.58 1399.41,-321.67 1398.04,-308.69"/>
<polygon fill="black" stroke="black" points="1401.54,-308.55 1397.01,-298.97 1394.58,-309.29 1401.54,-308.55"/>
<text text-anchor="middle" x="1415" y="-318.8" font-family="Times,serif" font-size="14.00">h2h3</text>
</g>
<!-- 5142050105554391419 -->
<g id="node61" class="node">
<title>5142050105554391419</title>
<polygon fill="none" stroke="black" points="1314,-297 1260,-297 1260,-261 1314,-261 1314,-297"/>
<text text-anchor="middle" x="1287" y="-275.3" font-family="Times,serif" font-size="14.00">19</text>
</g>
<!-- 6552706839942046036&#45;&gt;5142050105554391419 -->
<g id="edge55" class="edge">
<title>6552706839942046036&#45;&gt;5142050105554391419</title>
<path fill="none" stroke="black" d="M1287,-347.8C1287,-336.58 1287,-321.67 1287,-308.69"/>
<polygon fill="black" stroke="black" points="1290.5,-308.98 1287,-298.98 1283.5,-308.98 1290.5,-308.98"/>
<text text-anchor="middle" x="1300" y="-318.8" font-family="Times,serif" font-size="14.00">e3e4</text>
</g>
</g>
</svg>
